<svg xmlns="http://www.w3.org/2000/svg" viewBox="0 0 512 512"><path d="M118.581 100.268c-4.971-4.895-13.66-1.756-13.979 5.069-2.026 43.288 2.708 156.239 99.655 210.804 57.445 32.332 55.963-2.209 55.963-2.209l-3.324-77.463z" fill="#c6e873"/><path d="M229.259 294.385a7.694 7.694 0 01-5.177-1.994c-1.891-1.709-46.638-42.449-72.84-93.052a7.727 7.727 0 0113.722-7.104c24.885 48.06 69.036 88.293 69.479 88.693a7.727 7.727 0 01-5.184 13.457z" fill="#b5e245"/><g><path d="M393.419 100.268c4.971-4.895 13.66-1.756 13.979 5.069 2.026 43.288-2.708 156.239-99.655 210.804-57.445 32.332-55.963-2.209-55.963-2.209l3.324-77.463z" fill="#c6e873"/><path d="M282.74 294.385a7.703 7.703 0 01-5.734-2.546 7.725 7.725 0 01.551-10.911c.443-.4 44.594-40.633 69.479-88.693a7.723 7.723 0 0110.413-3.309 7.725 7.725 0 013.309 10.413c-26.202 50.604-70.949 91.343-72.84 93.052a7.693 7.693 0 01-5.178 1.994z" fill="#b5e245"/></g><g><path d="M262.864 4.409c-2.531-5.878-11.197-5.878-13.728 0-14.631 33.98-47.565 118.075-47.565 186.601 0 88.095 54.429 142.247 54.429 142.247s54.429-54.153 54.429-142.247c0-68.526-32.933-152.621-47.565-186.601z" fill="#b5e245"/><path d="M256 304.177a7.725 7.725 0 01-7.726-7.726V136.487a7.725 7.725 0 017.726-7.726 7.725 7.725 0 017.726 7.726v159.964a7.725 7.725 0 01-7.726 7.726z" fill="#a8d340"/></g><g><path d="M283.975 512a24.673 24.673 0 0024.029-19.071l40.618-174.18H101.401l40.618 174.18C144.623 504.098 154.58 512 166.048 512z" fill="#eaaa89"/><path d="M342.956 318.749l-40.618 174.18C299.734 504.098 289.777 512 278.309 512h67.643c11.468 0 21.425-7.902 24.029-19.071l40.618-174.18z" fill="#e4936b"/><path d="M376.264 316.541c0-12.202-9.891-22.094-22.093-22.094H93.998c-12.202 0-22.094 9.892-22.094 22.094 0 12.202 9.892 22.094 22.094 22.094H354.17c12.202 0 22.094-9.892 22.094-22.094z" fill="#e4936b"/><path d="M418.003 294.446h-67.954c12.202 0 22.094 9.892 22.094 22.094 0 12.202-9.892 22.094-22.094 22.094h67.954c12.202 0 22.094-9.892 22.094-22.094 0-12.202-9.892-22.094-22.094-22.094z" fill="#e27d47"/></g></svg>